<svg width="512" height="512" viewBox="0 0 512 512" fill="none" xmlns="http://www.w3.org/2000/svg">
<path fill-rule="evenodd" clip-rule="evenodd" d="M249.223 327.755C228.853 327.865 208.783 324.699 206.884 324.16C207.09 324.186 207.45 324.238 207.95 324.31C208.064 324.327 208.189 324.345 208.318 324.364C213.671 325.147 231.333 327.729 249.223 327.755Z" fill="url(#paint0_linear_1_1379)"/>
<path fill-rule="evenodd" clip-rule="evenodd" d="M249.223 327.755C228.853 327.865 208.783 324.699 206.884 324.16C207.09 324.186 207.45 324.238 207.95 324.31C208.064 324.327 208.189 324.345 208.318 324.364C213.671 325.147 231.333 327.729 249.223 327.755ZM249.223 327.755C272.135 327.789 295.806 324.523 298.003 324.16C298.003 324.16 273.179 327.625 249.223 327.755Z" fill="url(#paint1_linear_1_1379)"/>
<path fill-rule="evenodd" clip-rule="evenodd" d="M249.223 327.755C228.853 327.865 208.783 324.699 206.884 324.16C207.09 324.186 207.45 324.238 207.95 324.31C208.064 324.327 208.189 324.345 208.318 324.364C213.671 325.147 231.333 327.729 249.223 327.755ZM249.223 327.755C272.135 327.789 295.806 324.523 298.003 324.16C298.003 324.16 273.179 327.625 249.223 327.755Z" fill="url(#paint2_linear_1_1379)"/>
<path fill-rule="evenodd" clip-rule="evenodd" d="M249.223 327.755C272.135 327.789 295.806 324.523 298.003 324.16C298.003 324.16 273.179 327.625 249.223 327.755Z" fill="url(#paint3_linear_1_1379)"/>
<path fill-rule="evenodd" clip-rule="evenodd" d="M249.223 327.755C228.853 327.865 208.783 324.699 206.884 324.16C207.09 324.186 207.45 324.238 207.95 324.31L208.318 324.364C213.671 325.147 231.333 327.729 249.223 327.755ZM249.223 327.755C272.135 327.789 295.806 324.523 298.003 324.16C298.003 324.16 273.179 327.625 249.223 327.755Z" fill="url(#paint4_linear_1_1379)"/>
<path fill-rule="evenodd" clip-rule="evenodd" d="M206.884 324.16C208.783 324.699 228.853 327.865 249.223 327.755C231.333 327.729 213.671 325.147 208.318 324.364L207.95 324.31C207.45 324.238 207.09 324.186 206.884 324.16Z" fill="url(#paint5_linear_1_1379)"/>
<path fill-rule="evenodd" clip-rule="evenodd" d="M249.223 327.755C228.853 327.865 208.783 324.699 206.884 324.16C207.09 324.186 207.45 324.238 207.95 324.31L208.318 324.364C213.671 325.147 231.333 327.729 249.223 327.755ZM249.223 327.755C272.135 327.789 295.806 324.523 298.003 324.16C298.003 324.16 273.179 327.625 249.223 327.755Z" fill="url(#paint6_linear_1_1379)"/>
<path fill-rule="evenodd" clip-rule="evenodd" d="M12.2911 195.426C8.5565 189.806 7.52339 154.081 12.2911 150.899C14.6268 149.34 47.8395 150.44 81.3922 151.552C116.331 152.709 151.639 153.879 152.834 152.071C153.816 150.583 152.963 147.266 152.066 143.78C150.825 138.96 149.502 133.816 152.834 132.737C158.575 130.877 314.268 128.471 319.431 132.737C321.65 134.571 325.827 140.594 330.236 146.952C336.082 155.381 342.336 164.4 344.983 165.033C346.789 165.464 369.934 159.558 397.92 152.416C441.915 141.189 497.872 126.909 501.691 129.401C507.94 133.478 488.356 198.299 483.324 206.888C481.101 210.684 453.201 224.673 422.601 240.017C383.951 259.397 340.994 280.937 340.027 286.823C338.843 294.034 371.094 317.247 392.164 332.412C401.908 339.425 409.261 344.718 409.809 345.909C411.539 349.678 414.198 378.221 406.964 381.759C406.964 381.759 337.912 383.54 334.122 381.735C332.642 381.031 330.189 379.297 327.456 377.364C323.188 374.347 318.235 370.846 315.225 370.018C310.288 368.66 185.734 369.543 183.541 370.018C181.347 370.493 168.858 379.531 166.416 381.735C163.973 383.94 87.216 382.287 86.696 381.735C86.696 381.735 83.2519 347.44 86.696 341.896C88.1397 339.572 96.1281 336.711 105.146 333.483C117.643 329.008 132.118 323.826 133.893 318.381C136.951 309.007 136.568 246.361 128.353 238.336C124.047 234.13 93.3972 224.089 64.6641 214.676C38.5764 206.129 14.0684 198.1 12.2911 195.426ZM206.884 324.16C208.783 324.699 228.853 327.865 249.223 327.755C272.135 327.789 295.806 324.523 298.003 324.16C302.136 323.477 312.863 320.139 311.682 318.967C310.501 317.795 188.265 317.795 185.903 318.381C183.54 318.967 201.769 323.669 206.884 324.16Z" fill="#F8F8F8"/>
<path fill-rule="evenodd" clip-rule="evenodd" d="M411.497 369.887C411.497 368.871 315.693 370.091 316.475 370.463C317.257 370.835 321.863 373.615 326.05 376.483C329.566 378.891 333.501 381.611 334.746 382.148C337.474 383.323 403.488 382.473 406.934 381.887C410.381 381.301 411.497 371.487 411.497 369.887Z" fill="#C4C5C8"/>
<path fill-rule="evenodd" clip-rule="evenodd" d="M181.969 370.742C183.501 370.04 85.7004 369.339 85.7681 370.327C85.7792 370.488 85.7972 370.871 85.8223 371.404C85.9503 374.124 86.2625 380.756 86.7764 381.851C87.391 383.159 163.315 383.31 166.342 381.826C168.068 380.98 172.409 377.723 176.105 374.95C178.891 372.859 181.311 371.043 181.969 370.742Z" fill="#C4C5C8"/>
<path d="M358.679 117.791C356.072 118.604 343.149 154.063 345.939 153.321C348.73 152.58 402.934 138.14 403.275 137.092C403.617 136.043 361.285 116.978 358.679 117.791Z" fill="url(#paint7_linear_1_1379)"/>
<path d="M381.49 54.4383C378.411 55.7241 355.691 114.132 356.049 117.056C356.407 119.979 401.972 137.848 403.374 137.048C404.775 136.249 436.953 85.5237 436.855 83.9386C436.758 82.3536 384.568 53.1525 381.49 54.4383Z" fill="url(#paint8_linear_1_1379)"/>
<path d="M372.921 126.657C368.015 124.262 357.783 118.718 357.759 118.573C375.465 127.283 385.414 131.12 403.294 136.963C404.439 138.594 377.826 129.051 372.921 126.657Z" fill="#EC5337"/>
<path d="M403.416 137.006C404.116 136.253 358.919 116.029 356.003 116.917C355.166 118.552 379.401 128.464 380.99 129.151C382.579 129.837 402.716 137.759 403.416 137.006Z" fill="white" fill-opacity="0.1"/>
<defs>
<linearGradient id="paint0_linear_1_1379" x1="256" y1="129.114" x2="256" y2="382.85" gradientUnits="userSpaceOnUse">
<stop stop-color="#F8F8F8"/>
<stop offset="0.514423" stop-color="white"/>
</linearGradient>
<linearGradient id="paint1_linear_1_1379" x1="256" y1="129.114" x2="256" y2="382.85" gradientUnits="userSpaceOnUse">
<stop stop-color="#F8F8F8"/>
<stop offset="0.514423" stop-color="white"/>
</linearGradient>
<linearGradient id="paint2_linear_1_1379" x1="256" y1="129.114" x2="256" y2="382.85" gradientUnits="userSpaceOnUse">
<stop stop-color="#F8F8F8"/>
<stop offset="0.514423" stop-color="white"/>
</linearGradient>
<linearGradient id="paint3_linear_1_1379" x1="256" y1="129.114" x2="256" y2="382.85" gradientUnits="userSpaceOnUse">
<stop stop-color="#F8F8F8"/>
<stop offset="0.514423" stop-color="white"/>
</linearGradient>
<linearGradient id="paint4_linear_1_1379" x1="256" y1="129.114" x2="256" y2="382.85" gradientUnits="userSpaceOnUse">
<stop stop-color="#F8F8F8"/>
<stop offset="0.514423" stop-color="white"/>
</linearGradient>
<linearGradient id="paint5_linear_1_1379" x1="256" y1="129.114" x2="256" y2="382.85" gradientUnits="userSpaceOnUse">
<stop stop-color="#F8F8F8"/>
<stop offset="0.514423" stop-color="white"/>
</linearGradient>
<linearGradient id="paint6_linear_1_1379" x1="256" y1="129.114" x2="256" y2="382.85" gradientUnits="userSpaceOnUse">
<stop stop-color="#F8F8F8"/>
<stop offset="0.514423" stop-color="white"/>
</linearGradient>
<linearGradient id="paint7_linear_1_1379" x1="373.511" y1="119.426" x2="374.698" y2="152.292" gradientUnits="userSpaceOnUse">
<stop stop-color="#F06C4C"/>
<stop offset="1" stop-color="#EF4A34"/>
</linearGradient>
<linearGradient id="paint8_linear_1_1379" x1="394.766" y1="53.9577" x2="397.775" y2="137.269" gradientUnits="userSpaceOnUse">
<stop stop-color="#F4D860"/>
<stop offset="1" stop-color="#EE7C4F"/>
</linearGradient>
</defs>
</svg>
