<svg width="512" height="512" viewBox="0 0 512 512" fill="none" xmlns="http://www.w3.org/2000/svg">
<path fill-rule="evenodd" clip-rule="evenodd" d="M36.5059 371.221H476.679C477.577 371.613 478.434 371.976 479.25 372.322C488.052 376.057 492.11 377.779 492.226 391.556V432.896C492.226 443.233 486.994 443.233 476.679 443.233H36.5059C27.6898 443.233 19.7737 441.767 19.7736 432.896L19.7736 403.461L19.7736 391.556C19.7736 376.563 22.7886 375.24 36.5059 371.221Z" fill="#C4C5C8"/>
<path fill-rule="evenodd" clip-rule="evenodd" d="M193.398 220.169L271.044 141.884C267.79 135.057 266.068 127.529 266.068 120C266.068 91.736 289.036 68.7673 317.237 68.7673C341.417 68.7673 361.77 85.2282 367.002 108.516C390.162 113.875 406.559 134.228 406.559 158.217C406.559 186.481 383.59 209.45 355.326 209.45C344.671 209.45 334.336 206.132 325.786 200.007L306.071 220.105L193.398 220.169Z" fill="white"/>
<path fill-rule="evenodd" clip-rule="evenodd" d="M476.679 371.221H36.5059L47.9878 241.593C48.2154 239.291 48.3921 237.235 48.5499 235.399C49.1824 228.04 49.5115 224.212 51.596 222.224C53.8569 220.069 58.1827 220.079 67.2004 220.1C68.1492 220.103 69.1499 220.105 70.2057 220.105L193.398 220.169L306.071 220.105H446.328C446.792 220.105 447.245 220.105 447.688 220.104C448.2 220.103 448.697 220.102 449.181 220.101C458.157 220.082 462.355 220.073 464.481 222.168C466.348 224.008 466.615 227.473 467.116 233.983C467.283 236.161 467.477 238.68 467.766 241.593L476.679 371.221Z" fill="url(#paint0_linear_8_66)"/>
<path d="M217.405 312.364C214.275 313.218 197.41 354.766 200.755 354.006C204.1 353.246 269.08 338.425 269.53 337.194C269.981 335.963 220.535 311.511 217.405 312.364Z" fill="url(#paint1_linear_8_66)"/>
<path d="M247.207 238.119C243.497 239.514 214.015 307.891 214.314 311.378C214.613 314.866 267.95 338.036 269.649 337.147C271.347 336.258 311.73 277.408 311.682 275.522C311.634 273.636 250.918 236.725 247.207 238.119Z" fill="url(#paint2_linear_8_66)"/>
<path d="M233.935 323.502C228.214 320.449 216.302 313.427 216.279 313.254C236.929 324.355 248.578 329.338 269.558 337.043C270.848 339.028 239.657 326.555 233.935 323.502Z" fill="#EC5337"/>
<path d="M269.701 337.098C270.565 336.234 217.766 310.283 214.265 311.212C213.202 313.118 241.553 325.927 243.41 326.81C245.267 327.693 268.838 337.962 269.701 337.098Z" fill="white" fill-opacity="0.1"/>
<defs>
<linearGradient id="paint0_linear_8_66" x1="256" y1="68.7673" x2="256" y2="443.233" gradientUnits="userSpaceOnUse">
<stop stop-color="#F8F8F8"/>
<stop offset="0.514423" stop-color="white"/>
</linearGradient>
<linearGradient id="paint1_linear_8_66" x1="234.946" y1="314.942" x2="234.946" y2="354.017" gradientUnits="userSpaceOnUse">
<stop stop-color="#F06C4C"/>
<stop offset="1" stop-color="#EF4A34"/>
</linearGradient>
<linearGradient id="paint2_linear_8_66" x1="262.992" y1="238.118" x2="262.992" y2="337.169" gradientUnits="userSpaceOnUse">
<stop stop-color="#F4D860"/>
<stop offset="1" stop-color="#EE7C4F"/>
</linearGradient>
</defs>
</svg>
